<?xml version="1.0" encoding="utf-8"?><svg viewBox="0 0 29 28" xmlns="http://www.w3.org/2000/svg" xmlns:xlink="http://www.w3.org/1999/xlink"><style>:root>svg{display:none}:root>svg:target{display:block}</style><svg fill="none" viewBox="0 0 29 28" id="facebook" xmlns="http://www.w3.org/2000/svg"><g clip-path="url(#aclip0_6_299)"><path d="M4.817 28h9.242v-9.953h-3.32v-3.281h3.32v-4.102c0-2.262 1.862-4.101 4.15-4.101h4.15v3.28h-3.32c-.915 0-1.66.737-1.66 1.641v3.282h4.83l-.553 3.28H17.38V28h7.47C27.14 28 29 26.16 29 23.898V4.102C29 1.84 27.138 0 24.85 0H4.817C2.53 0 .667 1.84.667 4.102v19.796C.667 26.16 2.529 28 4.817 28zM2.327 4.102c0-1.357 1.117-2.461 2.49-2.461H24.85c1.373 0 2.49 1.104 2.49 2.46v19.797c0 1.357-1.117 2.461-2.49 2.461h-5.81v-6.672h4.023l1.106-6.562h-5.13v-1.64h4.98V4.921h-5.81c-3.204 0-5.81 2.576-5.81 5.742v2.461h-3.32v6.563h3.32v6.671H4.817c-1.373 0-2.49-1.104-2.49-2.46V4.101z" fill="#fff"/></g><defs><clipPath id="aclip0_6_299"><path fill="#fff" transform="translate(.667)" d="M0 0h28.333v28H0z"/></clipPath></defs></svg><svg fill="none" viewBox="0 0 29 28" id="instagram" xmlns="http://www.w3.org/2000/svg"><path d="M5.608 28h17.118c3.091 0 5.607-2.486 5.607-5.542V5.542C28.333 2.486 25.818 0 22.726 0H5.608C2.516 0 0 2.486 0 5.542v16.916C0 25.514 2.516 28 5.608 28zM1.77 5.542c0-2.091 1.721-3.792 3.837-3.792h17.118c2.115 0 3.837 1.701 3.837 3.792v16.916c0 2.091-1.722 3.792-3.837 3.792H5.608c-2.116 0-3.837-1.701-3.837-3.792V5.542z" fill="#fff"/><path d="M14.167 21.152c3.99 0 7.237-3.209 7.237-7.152s-3.246-7.152-7.237-7.152c-3.99 0-7.236 3.209-7.236 7.152s3.246 7.152 7.236 7.152zm0-12.554c3.014 0 5.466 2.424 5.466 5.402 0 2.979-2.452 5.402-5.466 5.402-3.014 0-5.466-2.423-5.466-5.402 0-2.978 2.452-5.402 5.466-5.402zM21.673 8.589c1.164 0 2.041-.863 2.041-2.008 0-1.193-.923-2.008-2.04-2.008-1.164 0-2.04.864-2.04 2.008 0 1.191.918 2.008 2.04 2.008zm.21-2.2c.372.325-.479.72-.479.193 0-.315.433-.233.478-.193z" fill="#fff"/></svg><svg fill="none" viewBox="0 0 24 24" id="mail" xmlns="http://www.w3.org/2000/svg"><path d="M12 0C5.371 0 0 5.373 0 12c0 6.629 5.371 12 12 12 6.626 0 12-5.371 12-12 0-6.627-5.374-12-12-12zm7.177 7.028l.017.003-6.697 6.698a.61.61 0 01-.841-.002l-6.7-6.699h14.221zm-14.688.449c0-.005.003-.008.003-.008l4.551 4.549-4.554 4.554V7.477zm.448 9.621c-.02 0-.039-.01-.059-.013l4.616-4.615 1.709 1.709c.231.233.543.36.874.36.328 0 .64-.127.871-.36l1.653-1.654 4.572 4.573H4.937zm14.689-.452l-4.572-4.572 4.572-4.572v9.144z" fill="#fff"/></svg><svg fill="none" viewBox="0 0 24 24" id="phone" xmlns="http://www.w3.org/2000/svg"><path d="M12 0C5.373 0 0 5.373 0 12s5.373 12 12 12 12-5.373 12-12S18.627 0 12 0zm3.227 18.184c-1.59-.098-4.717-1.924-6.174-3.564C7.6 12.979 6.157 9.657 6.252 8.064c0 0 1.732-2.291 2.527-2.245.801.048 3.043 2.576 2.195 3.328-.84.747-1.637.701-1.684 1.494-.045.795.701 1.641 1.445 2.483.752.846 1.498 1.685 2.295 1.73.795.05.844-.743 1.684-1.495.844-.748 3.09 1.784 3.041 2.579-.044.792-2.528 2.246-2.528 2.246z" fill="#fff"/></svg></svg>